<?xml version="1.0" encoding="UTF-8" standalone="no"?>
<!-- Created with Inkscape (http://www.inkscape.org/) -->

<svg
   xmlns:dc="http://purl.org/dc/elements/1.1/"
   xmlns:cc="http://creativecommons.org/ns#"
   xmlns:rdf="http://www.w3.org/1999/02/22-rdf-syntax-ns#"
   xmlns:svg="http://www.w3.org/2000/svg"
   xmlns="http://www.w3.org/2000/svg"
   version="1.1"
   width="744.09448"
   height="1052.3622"
   id="svg2">
  <defs
     id="defs4" />
  <metadata
     id="metadata7">
    <rdf:RDF>
      <cc:Work
         rdf:about="">
        <dc:format>image/svg+xml</dc:format>
        <dc:type
           rdf:resource="http://purl.org/dc/dcmitype/StillImage" />
        <dc:title></dc:title>
      </cc:Work>
    </rdf:RDF>
  </metadata>
  <g
     id="layer1">
    <g
       transform="translate(-224.979,229.2647)"
       id="layer1-1">
      <path
         d="m 913.46134,205.35244 0,197.62084 -188.60654,188.60654 -245.4659,0 -188.60654,-188.60654 0,-208.36865 0,-37.09725 188.60654,-188.606539 245.4659,0 188.60654,188.606539 0,26.34945 0,0 M 888.4347,162.46262 c -443.18134,-1.17764 -222.83962,-0.24511 -573.71801,-0.24511 l -2.43872,232.43489 176.12523,175.44148 228.13071,0 175.43182,-175.44148 z m 0.064,-0.10136 -171.96481,-171.9648091 -228.13071,0 -173.7505,171.9648091 c 150.21462,-0.0625 291.05697,2.02031 573.84604,0 z m -640.70758,-21.49561 0,278.7494 214.95602,214.95599 279.44279,0 214.26261,-214.95599 0,-278.7494 -214.26261,-214.955993 -279.44279,0 z m 21.49561,8.32088 0,262.10764 201.78126,201.78126 262.10767,0 201.78127,-201.78126 0,-262.10764 -201.78127,-201.781298 -262.10767,0 z"
         id="path2349"
         style="fill:#061843;fill-rule:evenodd" />
      <rect
         width="191.01306"
         height="21.071455"
         ry="0"
         x="626.46155"
         y="269.79758"
         id="rect3827"
         style="fill:#061843;fill-opacity:1;stroke:#ffffff;stroke-width:0.88105077;stroke-opacity:1" />
    </g>
    <rect
       width="569.64288"
       height="1.78571"
       ry="0.89285278"
       x="92.14286"
       y="390.93362"
       id="rect3765"
       style="fill:#ffffff;fill-opacity:1;stroke:#ffffff;stroke-opacity:1" />
    <rect
       width="246.07146"
       height="21.071455"
       ry="0"
       x="245.64438"
       y="-386.30338"
       transform="matrix(0,1,-1,0,0,0)"
       id="rect3827-8"
       style="fill:#061843;fill-opacity:1;stroke:#ffffff;stroke-opacity:1" />
  </g>
</svg>
